
<global>
amp_veltrack=0
ampeg_release=0.50
</global>

<group>
ampeg_release=0.15
group_label=Sustain_0-45
lpc_hicc1=42
lpc_locc1=0

<region>
hikey=a#2
hivel=127
lokey=a2
lovel=1
lpc=m3eVQotTJcOvOu1CLoaBwiHchEJQyArClgwCQcd9KDvaGd0+dCIdvjUcGMCgpA3AlIOnQMr8EcG2D5JAlaOhv9PxEcDnTIhADBuzQH3klr6LdBnA3DZzv4Mc28A+gq5A
lpc_rms=-28.71
offset=399
pitch_keycenter=a#2
sample=Bassoon_fall_PP_A#2.opus
</region>

<region>
hikey=a#3
hivel=127
lokey=a3
lovel=1
lpc=OrjBQkw5acN1vj9DStHJwiY0u0L9t4zCpEIPQpZjIcH1EjbB7tSEQc6YqMAWGf3AZgmLQDGEakBfsZ3AO+2kP/2FhcBxiBpBySkKwEP7cT8SfBC/dYUEweaVoECwi2s/
lpc_rms=-26.85
offset=635
pitch_keycenter=a#3
sample=Bassoon_fall_PP_A#3.opus
</region>

<region>
hivel=127
key=c2
lovel=1
lpc=TxKfQsimO8M9jwVDZe8qwt7CK0JwTNrBjzoIQRB/+8ATsUw/bEk8QPbokMAkmYc9PrcgwC6SH0GL1CPB3EKwQE73DkA6qHE/87t/wAqSnb+m0A+/B4kjQF0aOj7iIPW+
lpc_rms=-28.02
offset=248
sample=Bassoon_fall_PP_C2.opus
</region>

<region>
hikey=c3
hivel=127
lokey=b2
lovel=1
lpc=f0K9QsNuVMMD2BZD4haKwokhhkL1uhrCk/SXQe6VmMEUjdBBrN6EwUzAQkBmPyzBHTvhv8HFgUDi6dw+4LusQO57J0CT8Um/xhTHQD0xFsHsp0rAk+83PxvpTj4rjzBA
lpc_rms=-24.85
offset=858
pitch_keycenter=c3
sample=Bassoon_fall_PP_C3.opus
</region>

<region>
hikey=c4
hivel=127
lokey=b3
lovel=1
lpc=UHgAQzFxkMPEvlFDsES/wsM+qEK4m0zCwAKTQU8QIEAmVtrAHhgYQXFU9b97D5vBYEiCQTt51sCZKUzAeV4ZQBDyG0FEI9rAxq3fQI5nIcEdR/RAxDNQwScySEEMbVTA
lpc_rms=-26.09
offset=5918
pitch_keycenter=c4
sample=Bassoon_fall_PP_C4.opus
</region>

<region>
hikey=d2
hivel=127
lokey=c#2
lovel=1
lpc=2vfbQoU9aMOgAAtDyIZLwn8jb0Lyu8/BFC0fQZ/FRMEFjExB9ul3Pw6ti8GVW3xAB5+CwFo4/kAYgnzAp7zQQG1eesBFnd5A+cBGwb/yNEGiVhfAs0JiwK3YX8AQc4lA
lpc_rms=-29.81
offset=170
pitch_keycenter=d2
sample=Bassoon_fall_PP_D2.opus
</region>

<region>
hikey=d3
hivel=127
lokey=c#3
lovel=1
lpc=JaTkQlvLk8O2dohDOYYGw7gQikKYMQnCHhzFQXm+qcGnnQBB2iT+v9zqs8BsKq5ATJ6KwKKIO0HCgVTBmfoYQZSb8MDLXZtAN5QyQLAdGsF0RqhAkXG8P6Huij+bDva/
lpc_rms=-25.03
offset=838
pitch_keycenter=d3
sample=Bassoon_fall_PP_D3.opus
</region>

<region>
hikey=d4
hivel=127
lokey=c#4
lovel=1
lpc=gVTWQpvygcPfWVNDs/O5wovUg0J9a0bCFR3kQVUv/MAhQp2/X9ooQVMRosGRDUdAl5tXQZz4hr4EnI3BXn8CvoiCikHWRKm9ZqdxwNbHtsCWSjG/zllRQEZ/FT/lHoG+
lpc_rms=-28.24
offset=1328
pitch_keycenter=d4
sample=Bassoon_fall_PP_D4.opus
</region>

<region>
hikey=e2
hivel=127
lokey=d#2
lovel=1
lpc=bpyeQk6WIsN+R99CfdaRwhexTULZ2Q/Bi8ePQSyTRsFE7sJAwUXRwAc5mMB5rus98a1UwFNT2UChnc3AnckVQa9GpsBw8QtAYETrPhuQicBuExlBSZIgwRpujj9oIwNA
lpc_rms=-25.81
offset=104
pitch_keycenter=e2
sample=Bassoon_fall_PP_E2.opus
</region>

<region>
hikey=e3
hivel=127
lokey=d#3
lovel=1
lpc=eraxQszsTMNqJitDSpDJwpReg0K2KM3Bt3ynQYeGZcFk6D5AK134wGibJkFVN4/A9WGgv00SvsAh+0ZAaYU+QB1TgcC/s6o/tKN1QQBWIcH9jmq+It+EwEjy2b9sAoFA
lpc_rms=-23.36
offset=684
pitch_keycenter=e3
sample=Bassoon_fall_PP_E3.opus
</region>

<region>
hikey=e4
hivel=127
lokey=d#4
lovel=1
lpc=e67PQlFgecN05EFDiSqhwsHxhUIgJCLCmqaBQW5OVcFDakdBYoqtwck4dUFvherAJgSrQbUJo8EKBRBACTVqwTEepUGMYp5AYITtv01xoMB4iA3BFm8HQXpJusAEl5BA
lpc_rms=-24.33
offset=10340
pitch_keycenter=e4
sample=Bassoon_fall_PP_E4.opus
</region>

<region>
hikey=f#2
hivel=127
lokey=f2
lovel=1
lpc=pAFHQlUWxsLmjH5C05khwmXaAEIxqQrBbo0iQeaCAMGGbHxBiyKSwYV3/UDjIc3AHs8kwKpRFEAmTG5AlH4CwSppS0ErESbBiIYaQPnupEBPdF9A7+sJwcsiGr7o2QtA
lpc_rms=-26.75
offset=1071
pitch_keycenter=f#2
sample=Bassoon_fall_PP_F#2.opus
</region>

<region>
hikey=f#3
hivel=127
lokey=f3
lovel=1
lpc=orQjQ62r0MMjKbBDEIEUw3fe+UI2IwTDGgDAQskM28Fn8IvBgOPQQKbXBEF3gAnC7yYGQq0NFME81+HAjmEwQVxHSUGYUVfBMQU7QcuzlMF7q9FAYLBMweShg0Ez62vA
lpc_rms=-23.82
offset=787
pitch_keycenter=f#3
sample=Bassoon_fall_PP_F#3.opus
</region>

<region>
hikey=f#4
hivel=127
lokey=f4
lovel=1
lpc=qRWpQtJVScORHBJD7EZjwgDOekJoLRjCKAldQSgxa8EReidBersVwXOPnb+h7MFAf8Q5wHKqhL51SW7A2+EuQLyeq0AQnEE9tXnzPrRKWD503ZfATZe5P9w6osCClqFA
lpc_rms=-26.29
offset=3933
pitch_keycenter=f#4
sample=Bassoon_fall_PP_F#4.opus
</region>

<region>
hikey=g#2
hivel=127
lokey=g2
lovel=1
lpc=zN4FQ7eMjMPuExBDVQcUwof8ykKYgInCeiEBQpM5IMIPWipCqVqgwWTpz8E3X/5AkF45QPpKj0EKvHzBhXhnQWeNp8G3hwFC45lywZnrG8FoKhpBzEMUwRdZvkA2np++
lpc_rms=-24.33
offset=455
pitch_keycenter=g#2
sample=Bassoon_fall_PP_G#2.opus
</region>

<region>
hikey=g#3
hivel=127
lokey=g3
lovel=1
lpc=xHHIQqctfsOqWE5DtQKYwq7DlEKdzJ7C9AcgQp7o+sAdPVPABITPQGiRbMGF3kfAn52WQXRmCcAPnMTA2yjcwKXfU0EjnYhACvWNwMH+fsENsShBMV4yQED0VMDsW6o/
lpc_rms=-24.89
offset=1858
pitch_keycenter=g#3
sample=Bassoon_fall_PP_G#3.opus
</region>

<region>
hikey=D5
hivel=127
lokey=g4
lovel=1
lpc=R5kQQkJ5ocIs9FlCyKR/wYnLf0Ehox7Bzty4PyUIF8DZDU1ABTQGwFY5pD9rXV/AzHUIQN/y/D4G6YK+v7byPu0m2T/Ehee/xgqoP1y/+L87Lpq/VZQ+QGb1KcBTHt0/
lpc_rms=-29.44
offset=1876
pitch_keycenter=G#4
sample=Bassoon_fall_PP_G#4.opus
</region>
</group>

<group>
ampeg_release=0.15
group_label=Sustain_46-90
lpc_hicc1=84
lpc_locc1=43

<region>
hikey=a#2
hivel=127
lokey=a2
lovel=1
lpc=8m+dQjt2P8NlESJDg1fEwkhavkLAK1PCgOteQS8FS8H4B4FBJbmYwVXFA0ERFhDBhMOQQcEhK8Gx1K5AA00CwKHVkcCtDWJAE2aYQGAIKcFPe1RAPkYDQUKvxcDKbwU/
lpc_rms=-22.87
offset=353
pitch_keycenter=a#2
sample=Bassoon_fall_MF_A#2.opus
</region>

<region>
hikey=a#3
hivel=127
lokey=a3
lovel=1
lpc=Khy5QrrJa8NzCkpDvfvDwnIBu0IjiIvCYxilQT90ysAw28lAxcoywW3aKEFAr0PBrjyaQb28kcFLO4VAOmJOQIFVb0BbW/HA1eePQW0NgsEO6UbAcnkpQFfXp0AcdwbA
lpc_rms=-17.57
offset=618
pitch_keycenter=a#3
sample=Bassoon_fall_MF_A#3.opus
</region>

<region>
hivel=127
key=c2
lovel=1
lpc=8d3YQrRMjcNY+m9DgVjDwtWdp0LrYY7CPGAkQotgB8Lr3Z5BgdyFwWEPY8AWbkdBecPPQAwo5kADFZPBNjuWQEmmCL+lSUU9wudIwGRxIkCxj6hAvwA+QAVeOMFE/6BA
lpc_rms=-23.03
offset=920
sample=Bassoon_fall_MF_C2.opus
</region>

<region>
hikey=c3
hivel=127
lokey=b2
lovel=1
lpc=vJqfQktRPsPskg5DUJFRwliNMkKj+bfBJFcGQec0mcGqRpdBq+gnwR5Tgb+f30jAwgEKQHOkB0FMqZzACIPRv++rGEFTljjBksCqQKtzNL/lu0zABu42PqGeoEC5SSHA
lpc_rms=-21.28
offset=622
pitch_keycenter=c3
sample=Bassoon_fall_MF_C3.opus
</region>

<region>
hikey=c4
hivel=127
lokey=b3
lovel=1
lpc=0wHnQpIIgcMuZh5D5VcYwqkdhUJa8e/BFoZLwcwLCMHrXoFAyIgcQZ2PSsFYRGVAd8TjP/yMx0DMv1zAAy8RwIpU0kBCeDnBVt5OQfr6tMDhHTvACKkgv+7ZrECe9QXA
lpc_rms=-16.02
offset=9998
pitch_keycenter=c4
sample=Bassoon_fall_MF_C4.opus
</region>

<region>
hikey=d2
hivel=127
lokey=c#2
lovel=1
lpc=3qbdQi1AcsO5KyZDy9G1wtg9tkJZ4TXCCn8xQjEEFcJYmqBBzTLDwcpd4r/plEBBpp53wfqVr0Eru0jBiacDQcsXFMGObSZB1VlIvxMQF8D1k06/+kO/wHiuj0AbAes+
lpc_rms=-21.46
offset=791
pitch_keycenter=d2
sample=Bassoon_fall_MF_D2.opus
</region>

<region>
hikey=d3
hivel=127
lokey=c#3
lovel=1
lpc=k/6fQsOAP8MjBRFDo9dNwuhUH0LND5bBVmWpv2PPMcDuWSBBvvVJwU/M1D4vgAY+dXCwQOCMXMDEap1Ail7WwEBvEEEfJK7Ahzh1vxjT2j7cwR9ATmvlwMIDD0GAClXA
lpc_rms=-18.55
offset=999
pitch_keycenter=d3
sample=Bassoon_fall_MF_D3.opus
</region>

<region>
hikey=d4
hivel=127
lokey=c#4
lovel=1
lpc=99aDQvQUI8MdKP9CWlQpwqZ4G0Ksmg3Cx/o7QV1er779uabAz7+GQJpd98Dv2HFA5Sf0QIm6K8Dl74nAVBRtv7nFhkBGRM0/OV7/v0jMJ8BMNrK+/eI8QFE1bD9T1tq/
lpc_rms=-20.42
offset=1606
pitch_keycenter=d4
sample=Bassoon_fall_MF_D4.opus
</region>

<region>
hikey=e2
hivel=127
lokey=d#2
lovel=1
lpc=iVXVQtAegcM7aUZD0wenwvFpnEL+2CnCPr4RQVpJt8BBM4bAQRc/wE0+k0AkkavALOmWQD+mQECFyyjAcxIpP2tBNEEqPFXB0sInviBCc0Dd73C/6tMpwLWcLUBCOpu+
lpc_rms=-20.16
offset=644
pitch_keycenter=e2
sample=Bassoon_fall_MF_E2.opus
</region>

<region>
hikey=e3
hivel=127
lokey=d#3
lovel=1
lpc=jV8JQ+KBs8MRdqZDV9Mpw5yA8kLoH8TCw2aBQrKCKsLvI8hBugWOwZIKusAlxCBBgsqHQe5BJcFW0fzA3jGLQMC3iT94s6q9AjUIwTS41UBoRPlArQSIwVTKlkFpaAvB
lpc_rms=-18.52
offset=448
pitch_keycenter=e3
sample=Bassoon_fall_MF_E3.opus
</region>

<region>
hikey=e4
hivel=127
lokey=d#4
lovel=1
lpc=84+VQlNAPMOZYyVDzk2fwlioakJOSD3C4T7qQVz0McFNz4LAx6WyQPGoI8Gkm0JB6+EiwOLxz7981Tg/QIgowfrjkEHavSDBoPRzQXJ6uMEvBgNBodWTvmuNmkC91izA
lpc_rms=-19.61
offset=10782
pitch_keycenter=e4
sample=Bassoon_fall_MF_E4.opus
</region>

<region>
hikey=f#2
hivel=127
lokey=f2
lovel=1
lpc=Js6qQuCHQMMOhf9CBvljwm39kkKLhfrBjyyPQMOjTMG8+txAffYgwAKKD8FNr51AeQyGwIbXEkGL60jA4fvfQNiV7MC3Ds9AL3m5wC3mWECYGdPAzdC6P+NPjEAQptC/
lpc_rms=-20.65
offset=552
pitch_keycenter=f#2
sample=Bassoon_fall_MF_F#2.opus
</region>

<region>
hikey=f#3
hivel=127
lokey=f3
lovel=1
lpc=G1sZQzeIzMNADL9DZbs9w5YZB0MJ2dnChO6FQgZqEMID/0xBycB4wcIlGEGtsuHAE0lwQf9qrUCHaLDBd3cXQJ23tECvayxBycB7wLHKBsDPSAzALOeqwB7UYD9HLpFA
lpc_rms=-15.16
offset=240
pitch_keycenter=f#3
sample=Bassoon_fall_MF_F#3.opus
</region>

<region>
hikey=f#4
hivel=127
lokey=f4
lovel=1
lpc=YAHCQgacg8NLim1Dpjq6wnk5hEI8Z4XC1iLrQY3UPsB4L+jA8WmCQEJgKsGc+7tB5JOAwdjZkr4bOMVAqGzFwIjzTEDW4he/wXwpQMFrzkADQILBf28YQc6EE8AX5U4/
lpc_rms=-16.07
offset=1313
pitch_keycenter=f#4
sample=Bassoon_fall_MF_F#4.opus
</region>

<region>
hikey=g#2
hivel=127
lokey=g2
lovel=1
lpc=8DsjQ8Tl0MPN1bxDC3xiwxfrQ0OkkdbCMqYNQr4vu8GiHUFBfIajwXLN4T8UU09AVxnHPqCxrEGiGTPB1iHnwM8gHUFquZ3AIWfuv+m+QsCgW9RAi0NDwR/hiEGzQ/DA
lpc_rms=-18.01
offset=103
pitch_keycenter=g#2
sample=Bassoon_fall_MF_G#2.opus
</region>

<region>
hikey=g#3
hivel=127
lokey=g3
lovel=1
lpc=G42QQtv5L8M14QlD89djwqoHWkIVgB3CUtGYQQJrF8HTPL3AHdB0wCB4BkGtwGi/oHg1QD2GG0DkLr/AkX2OQFncy8BX9n5AvlpvP3rHiT8OcMG/ByiDwBkkgkDwBgm/
lpc_rms=-19.81
offset=701
pitch_keycenter=g#3
sample=Bassoon_fall_MF_G#3.opus
</region>

<region>
hikey=D5
hivel=127
lokey=g4
lovel=1
lpc=/nsoQsRhzsLA06dCpiMbwr+RHkLV4ObBOYaiQJbRaUAPrafAiHmJv/a2UUD1EJ3AnkbzQM6dW0DovpXAJ5UiwI+sjL8xwXs/0PJEQDVTJMCDu46/XqWoP8yXSkBGkR7A
lpc_rms=-22.91
offset=1601
pitch_keycenter=G#4
sample=Bassoon_fall_MF_G#4.opus
</region>
</group>

<group>
ampeg_release=0.15
group_label=Sustain_91-127
lpc_hicc1=127
lpc_locc1=85

<region>
hikey=a#2
hivel=127
lokey=a2
lovel=1
lpc=ekhZQsrRB8MJq/xCQ+edwrnngEIwCC3CPL/AQQLwTcGFkrlAb0bXwH5D4T9uusC/hCaYQCUElD9pjZPA9gGZQMgm3MBvd+I/Tk8UQcDhIcFaQmBAkor2vzvBW0CYzMC/
lpc_rms=-18.52
offset=195
pitch_keycenter=a#2
sample=Bassoon_fall_FF_A#2.opus
</region>

<region>
hikey=a#3
hivel=127
lokey=a3
lovel=1
lpc=YHm4QnfzacMbk1JDMyTawiVSqkIzhJHCsKwzQvblXcHwSf+/LwZ3wKDsckCSrFDAKVokP4qjF0GT63nBZ3wkQYp6gUAo1qnAlq6CwIpigEH0tonBNhNewF/eREErpkvA
lpc_rms=-15.33
offset=220
pitch_keycenter=a#3
sample=Bassoon_fall_FF_A#3.opus
</region>

<region>
hivel=127
key=c2
lovel=1
lpc=wrBwQmp6HcPmBBFDspGawgBUeEKp4yzCqfLLQX4Z18HBSWRBkdgQwCc3dcDtlLpANf8mvm8ZOUAxhuzAQt3SQKVHxcCwUTpA0Kt4wLil20Ab7ETAAfVrP9N3IL86+bC9
lpc_rms=-20.92
offset=565
sample=Bassoon_fall_FF_C2.opus
</region>

<region>
hikey=c3
hivel=127
lokey=b2
lovel=1
lpc=tPEvQr+JysLRp6JChec/wr2/LkIOzNLBM6CoQUq0nsHTvS5Bk8oewX5plD9IiYhAQTu6vyLWV0AqU+6+6onCvwUvfj9XOS3A/duSQGKvCMGfjwtBVK0IwcCYF0E1OXbA
lpc_rms=-17.51
offset=68
pitch_keycenter=c3
sample=Bassoon_fall_FF_C3.opus
</region>

<region>
hikey=c4
hivel=127
lokey=b3
lovel=1
lpc=13qlQrg/PMOK6ABDl8btwbeK2UHLksHBSmwBQVdfgsCXXt5ADLYRwaLgvz4IUBLBKa1RQUMWQkDpmxfAX+hVQHrZ+MDCsPJAEfYNwahWt77Nlr0/N783v5aoUkHz+xHB
lpc_rms=-13.22
offset=789
pitch_keycenter=c4
sample=Bassoon_fall_FF_C4.opus
</region>

<region>
hikey=d2
hivel=127
lokey=c#2
lovel=1
lpc=x10DQmj/j8LfkmxCFWIowmew/UEcgRDBPtSrQDeYEcHe8/NACW/SwLQvg0CqRVPAMTJWQEMBNsBLr9M/hGvCv4kruT/YfG+8p+Hxv472KEBBYDC8zlnrvxeyAEALMoG/
lpc_rms=-19.58
offset=176
pitch_keycenter=d2
sample=Bassoon_fall_FF_D2.opus
</region>

<region>
hikey=d3
hivel=127
lokey=c#3
lovel=1
lpc=AQhSQsko+cLkitNC3oFWwolMAEJSKYzBOz82QWq+osCZrqdA+7mywN8CBT3QPJW/CggLQA0NusBcvolAWSUGQJCPCMBe4hdAwneGP01l2z1usJzAZMvnvwUQyUDa4tu/
lpc_rms=-17.04
offset=443
pitch_keycenter=d3
sample=Bassoon_fall_FF_D3.opus
</region>

<region>
hikey=d4
hivel=127
lokey=c#4
lovel=1
lpc=mNThQTVZjMK+34ZCtRQiwqhU10EbM6rBBhJqQe+CcMDWoSm+snWFPtUJLMCcJQdAtDwTv4yAQsCDwWlAD3vWvxq+4T+hZqQ/7vqWvyYPL0AVczLBcDpCQXvjncDrIy0/
lpc_rms=-21.01
offset=528
pitch_keycenter=d4
sample=Bassoon_fall_FF_D4.opus
</region>

<region>
hikey=e2
hivel=127
lokey=d#2
lovel=1
lpc=JQw4QmO0zsIo769Cq+mCwjf5U0JG/rHBS4RkQYoWR8FTrOJAdsLSwIc/hD9hVYY/KpJSvx7p7z7KxTu/HFi3P1qni7/x6x9AozSIv3HBvb1Y42E/X3JTwFI6V0AP2J2/
lpc_rms=-18.18
offset=681
pitch_keycenter=e2
sample=Bassoon_fall_FF_E2.opus
</region>

<region>
hikey=e3
hivel=127
lokey=d#3
lovel=1
lpc=oldZQtUC8sKzUa5CKpngwYCdfUE863fB1PCDQdhJ8MByL8NAdF4ywflrhT+MFY4/3ryPQKgu0b8ys5a/neGOv9kdOr6kBLxA7Eznv2kPTsCUcABADjBhvyyA+76jtJM/
lpc_rms=-14.88
offset=458
pitch_keycenter=e3
sample=Bassoon_fall_FF_E3.opus
</region>

<region>
hikey=e4
hivel=127
lokey=d#4
lovel=1
lpc=u2wdQoTXtcIG0J9CfrpBwgdgFkJLwArCaxMMQkQfz8HSFp1BdNVUwQCkHMAwZQBBA76pv4pPQcCqoRI/1FUTv1nFwL+feBZBrU4Rv85cOsFlxNJAY0Xlv3WEiUCkvzPA
lpc_rms=-14.17
offset=1081
pitch_keycenter=e4
sample=Bassoon_fall_FF_E4.opus
</region>

<region>
hikey=f#2
hivel=127
lokey=f2
lovel=1
lpc=tQxxQl9FF8OfvRBDQ83QwoY1uEJXplTCD5qeQbjSR8H3jRFB0j8wwAG1jMALOdJAd4sOwSt3q0A0aZ0/vP91Phpd4L6Wv4/AnIzoQIkZxMBhR9tAnPubwAC1gb/6d+c/
lpc_rms=-16.88
offset=54
pitch_keycenter=f#2
sample=Bassoon_fall_FF_F#2.opus
</region>

<region>
hikey=f#3
hivel=127
lokey=f3
lovel=1
lpc=3zmVQk4IPcPSpzBDnF3fwtmbvkLtBYjCh1I6QtK0CsJTTJhBwBiMwHVKZcEmXcc/37U3QR/J9kD7EInBFe17QY1hNsHytPtAa3lewCXn6sB07wNBCT6lwLMiykANSy7A
lpc_rms=-12.37
offset=371
pitch_keycenter=f#3
sample=Bassoon_fall_FF_F#3.opus
</region>

<region>
hikey=f#4
hivel=127
lokey=f4
lovel=1
lpc=DyJmQpEuFcPhuwNDJuZ3wuL7aUJCJ33CcCodQsyeN8HESZJArTnSwGRbgMBUCkVAeWMGQV1hLcHIDV4/fIp9QEqcGkCmfZO+L6vkQBMOc8GqhBNA3MLYP5n0jkACFBXA
lpc_rms=-17.10
offset=1597
pitch_keycenter=f#4
sample=Bassoon_fall_FF_F#4.opus
</region>

<region>
hikey=g#2
hivel=127
lokey=g2
lovel=1
lpc=At+HQkw7LsM81C1DYRb0wlSXvkJ3XmTC6hwUQlHr28Hj3WZBW0OZwRcAeUGnjiDBeChFQcPH978UrxTAcC/1vxUa1b808oW/fv4eQTnWPMFSGE1BHXyWwbnFokGklwjB
lpc_rms=-17.48
offset=963
pitch_keycenter=g#2
sample=Bassoon_fall_FF_G#2.opus
</region>

<region>
hikey=g#3
hivel=127
lokey=g3
lovel=1
lpc=IeczQhgGz8K0bZFChP/Cwbz860FNQMHBUHAEQXulmL5qIKTAcIvAQCYJ7MDoA+g//+G1P/PwTD+Rw3Y/ud0fP3YE8b8fjTtA5uq3v0/CiMCia7g/G9MnP/7oo0BkuXnA
lpc_rms=-15.50
offset=277
pitch_keycenter=g#3
sample=Bassoon_fall_FF_G#3.opus
</region>

<region>
hikey=D5
hivel=127
lokey=g4
lovel=1
lpc=algUQstvv8IU26hCoFYPwrH6/0HX5QrCSSVDQTODCUAl68Q/9jX4v7Q7gL8ko6nAzfG7QEZ2yUCegBrBbysgv+6PF0GzD1rAMs7jvzUwA8GdI/ZAZFUGP8XBJ0AZ6kLA
lpc_rms=-18.88
offset=1248
pitch_keycenter=G#4
sample=Bassoon_fall_FF_G#4.opus
</region>
</group>

<group>
ampeg_attack=0.02
ampeg_release=5.0
group_label=Release_0-45
lpc_hicc1=42
lpc_locc1=0
trigger=release

<region>
hikey=a#2
hivel=127
lokey=a2
lovel=1
lpc=m3eVQotTJcOvOu1CLoaBwiHchEJQyArClgwCQcd9KDvaGd0+dCIdvjUcGMCgpA3AlIOnQMr8EcG2D5JAlaOhv9PxEcDnTIhADBuzQH3klr6LdBnA3DZzv4Mc28A+gq5A
lpc_rms=-28.71
offset=57620
pitch_keycenter=a#2
sample=Bassoon_fall_PP_A#2.opus
</region>

<region>
hikey=a#3
hivel=127
lokey=a3
lovel=1
lpc=OrjBQkw5acN1vj9DStHJwiY0u0L9t4zCpEIPQpZjIcH1EjbB7tSEQc6YqMAWGf3AZgmLQDGEakBfsZ3AO+2kP/2FhcBxiBpBySkKwEP7cT8SfBC/dYUEweaVoECwi2s/
lpc_rms=-26.85
offset=56813
pitch_keycenter=a#3
sample=Bassoon_fall_PP_A#3.opus
</region>

<region>
hivel=127
key=c2
lovel=1
lpc=TxKfQsimO8M9jwVDZe8qwt7CK0JwTNrBjzoIQRB/+8ATsUw/bEk8QPbokMAkmYc9PrcgwC6SH0GL1CPB3EKwQE73DkA6qHE/87t/wAqSnb+m0A+/B4kjQF0aOj7iIPW+
lpc_rms=-28.02
offset=36051
sample=Bassoon_fall_PP_C2.opus
</region>

<region>
hikey=c3
hivel=127
lokey=b2
lovel=1
lpc=f0K9QsNuVMMD2BZD4haKwokhhkL1uhrCk/SXQe6VmMEUjdBBrN6EwUzAQkBmPyzBHTvhv8HFgUDi6dw+4LusQO57J0CT8Um/xhTHQD0xFsHsp0rAk+83PxvpTj4rjzBA
lpc_rms=-24.85
offset=48894
pitch_keycenter=c3
sample=Bassoon_fall_PP_C3.opus
</region>

<region>
hikey=c4
hivel=127
lokey=b3
lovel=1
lpc=UHgAQzFxkMPEvlFDsES/wsM+qEK4m0zCwAKTQU8QIEAmVtrAHhgYQXFU9b97D5vBYEiCQTt51sCZKUzAeV4ZQBDyG0FEI9rAxq3fQI5nIcEdR/RAxDNQwScySEEMbVTA
lpc_rms=-26.09
offset=53927
pitch_keycenter=c4
sample=Bassoon_fall_PP_C4.opus
</region>

<region>
end=63063
hikey=d2
hivel=127
lokey=c#2
lovel=1
lpc=2vfbQoU9aMOgAAtDyIZLwn8jb0Lyu8/BFC0fQZ/FRMEFjExB9ul3Pw6ti8GVW3xAB5+CwFo4/kAYgnzAp7zQQG1eesBFnd5A+cBGwb/yNEGiVhfAs0JiwK3YX8AQc4lA
lpc_rms=-29.81
offset=40541
pitch_keycenter=d2
sample=Bassoon_fall_PP_D2.opus
</region>

<region>
hikey=d3
hivel=127
lokey=c#3
lovel=1
lpc=JaTkQlvLk8O2dohDOYYGw7gQikKYMQnCHhzFQXm+qcGnnQBB2iT+v9zqs8BsKq5ATJ6KwKKIO0HCgVTBmfoYQZSb8MDLXZtAN5QyQLAdGsF0RqhAkXG8P6Huij+bDva/
lpc_rms=-25.03
offset=50333
pitch_keycenter=d3
sample=Bassoon_fall_PP_D3.opus
</region>

<region>
hikey=d4
hivel=127
lokey=c#4
lovel=1
lpc=gVTWQpvygcPfWVNDs/O5wovUg0J9a0bCFR3kQVUv/MAhQp2/X9ooQVMRosGRDUdAl5tXQZz4hr4EnI3BXn8CvoiCikHWRKm9ZqdxwNbHtsCWSjG/zllRQEZ/FT/lHoG+
lpc_rms=-28.24
offset=43451
pitch_keycenter=d4
sample=Bassoon_fall_PP_D4.opus
</region>

<region>
hikey=e2
hivel=127
lokey=d#2
lovel=1
lpc=bpyeQk6WIsN+R99CfdaRwhexTULZ2Q/Bi8ePQSyTRsFE7sJAwUXRwAc5mMB5rus98a1UwFNT2UChnc3AnckVQa9GpsBw8QtAYETrPhuQicBuExlBSZIgwRpujj9oIwNA
lpc_rms=-25.81
offset=39010
pitch_keycenter=e2
sample=Bassoon_fall_PP_E2.opus
</region>

<region>
hikey=e3
hivel=127
lokey=d#3
lovel=1
lpc=eraxQszsTMNqJitDSpDJwpReg0K2KM3Bt3ynQYeGZcFk6D5AK134wGibJkFVN4/A9WGgv00SvsAh+0ZAaYU+QB1TgcC/s6o/tKN1QQBWIcH9jmq+It+EwEjy2b9sAoFA
lpc_rms=-23.36
offset=51066
pitch_keycenter=e3
sample=Bassoon_fall_PP_E3.opus
</region>

<region>
hikey=e4
hivel=127
lokey=d#4
lovel=1
lpc=e67PQlFgecN05EFDiSqhwsHxhUIgJCLCmqaBQW5OVcFDakdBYoqtwck4dUFvherAJgSrQbUJo8EKBRBACTVqwTEepUGMYp5AYITtv01xoMB4iA3BFm8HQXpJusAEl5BA
lpc_rms=-24.33
offset=62968
pitch_keycenter=e4
sample=Bassoon_fall_PP_E4.opus
</region>

<region>
hikey=f#2
hivel=127
lokey=f2
lovel=1
lpc=pAFHQlUWxsLmjH5C05khwmXaAEIxqQrBbo0iQeaCAMGGbHxBiyKSwYV3/UDjIc3AHs8kwKpRFEAmTG5AlH4CwSppS0ErESbBiIYaQPnupEBPdF9A7+sJwcsiGr7o2QtA
lpc_rms=-26.75
offset=49817
pitch_keycenter=f#2
sample=Bassoon_fall_PP_F#2.opus
</region>

<region>
hikey=f#3
hivel=127
lokey=f3
lovel=1
lpc=orQjQ62r0MMjKbBDEIEUw3fe+UI2IwTDGgDAQskM28Fn8IvBgOPQQKbXBEF3gAnC7yYGQq0NFME81+HAjmEwQVxHSUGYUVfBMQU7QcuzlMF7q9FAYLBMweShg0Ez62vA
lpc_rms=-23.82
offset=42463
pitch_keycenter=f#3
sample=Bassoon_fall_PP_F#3.opus
</region>

<region>
hikey=f#4
hivel=127
lokey=f4
lovel=1
lpc=qRWpQtJVScORHBJD7EZjwgDOekJoLRjCKAldQSgxa8EReidBersVwXOPnb+h7MFAf8Q5wHKqhL51SW7A2+EuQLyeq0AQnEE9tXnzPrRKWD503ZfATZe5P9w6osCClqFA
lpc_rms=-26.29
offset=56060
pitch_keycenter=f#4
sample=Bassoon_fall_PP_F#4.opus
</region>

<region>
hikey=g#2
hivel=127
lokey=g2
lovel=1
lpc=zN4FQ7eMjMPuExBDVQcUwof8ykKYgInCeiEBQpM5IMIPWipCqVqgwWTpz8E3X/5AkF45QPpKj0EKvHzBhXhnQWeNp8G3hwFC45lywZnrG8FoKhpBzEMUwRdZvkA2np++
lpc_rms=-24.33
offset=55232
pitch_keycenter=g#2
sample=Bassoon_fall_PP_G#2.opus
</region>

<region>
hikey=g#3
hivel=127
lokey=g3
lovel=1
lpc=xHHIQqctfsOqWE5DtQKYwq7DlEKdzJ7C9AcgQp7o+sAdPVPABITPQGiRbMGF3kfAn52WQXRmCcAPnMTA2yjcwKXfU0EjnYhACvWNwMH+fsENsShBMV4yQED0VMDsW6o/
lpc_rms=-24.89
offset=51665
pitch_keycenter=g#3
sample=Bassoon_fall_PP_G#3.opus
</region>

<region>
hikey=D5
hivel=127
lokey=g4
lovel=1
lpc=R5kQQkJ5ocIs9FlCyKR/wYnLf0Ehox7Bzty4PyUIF8DZDU1ABTQGwFY5pD9rXV/AzHUIQN/y/D4G6YK+v7byPu0m2T/Ehee/xgqoP1y/+L87Lpq/VZQ+QGb1KcBTHt0/
lpc_rms=-29.44
offset=51938
pitch_keycenter=G#4
sample=Bassoon_fall_PP_G#4.opus
</region>
</group>

<group>
ampeg_attack=0.02
ampeg_release=5.0
group_label=Release_46-90
lpc_hicc1=84
lpc_locc1=43
trigger=release

<region>
hikey=a#2
hivel=127
lokey=a2
lovel=1
lpc=8m+dQjt2P8NlESJDg1fEwkhavkLAK1PCgOteQS8FS8H4B4FBJbmYwVXFA0ERFhDBhMOQQcEhK8Gx1K5AA00CwKHVkcCtDWJAE2aYQGAIKcFPe1RAPkYDQUKvxcDKbwU/
lpc_rms=-22.87
offset=61376
pitch_keycenter=a#2
sample=Bassoon_fall_MF_A#2.opus
</region>

<region>
hikey=a#3
hivel=127
lokey=a3
lovel=1
lpc=Khy5QrrJa8NzCkpDvfvDwnIBu0IjiIvCYxilQT90ysAw28lAxcoywW3aKEFAr0PBrjyaQb28kcFLO4VAOmJOQIFVb0BbW/HA1eePQW0NgsEO6UbAcnkpQFfXp0AcdwbA
lpc_rms=-17.57
offset=45260
pitch_keycenter=a#3
sample=Bassoon_fall_MF_A#3.opus
</region>

<region>
hivel=127
key=c2
lovel=1
lpc=8d3YQrRMjcNY+m9DgVjDwtWdp0LrYY7CPGAkQotgB8Lr3Z5BgdyFwWEPY8AWbkdBecPPQAwo5kADFZPBNjuWQEmmCL+lSUU9wudIwGRxIkCxj6hAvwA+QAVeOMFE/6BA
lpc_rms=-23.03
offset=55293
sample=Bassoon_fall_MF_C2.opus
</region>

<region>
hikey=c3
hivel=127
lokey=b2
lovel=1
lpc=vJqfQktRPsPskg5DUJFRwliNMkKj+bfBJFcGQec0mcGqRpdBq+gnwR5Tgb+f30jAwgEKQHOkB0FMqZzACIPRv++rGEFTljjBksCqQKtzNL/lu0zABu42PqGeoEC5SSHA
lpc_rms=-21.28
offset=49743
pitch_keycenter=c3
sample=Bassoon_fall_MF_C3.opus
</region>

<region>
hikey=c4
hivel=127
lokey=b3
lovel=1
lpc=0wHnQpIIgcMuZh5D5VcYwqkdhUJa8e/BFoZLwcwLCMHrXoFAyIgcQZ2PSsFYRGVAd8TjP/yMx0DMv1zAAy8RwIpU0kBCeDnBVt5OQfr6tMDhHTvACKkgv+7ZrECe9QXA
lpc_rms=-16.02
offset=55121
pitch_keycenter=c4
sample=Bassoon_fall_MF_C4.opus
</region>

<region>
hikey=d2
hivel=127
lokey=c#2
lovel=1
lpc=3qbdQi1AcsO5KyZDy9G1wtg9tkJZ4TXCCn8xQjEEFcJYmqBBzTLDwcpd4r/plEBBpp53wfqVr0Eru0jBiacDQcsXFMGObSZB1VlIvxMQF8D1k06/+kO/wHiuj0AbAes+
lpc_rms=-21.46
offset=52033
pitch_keycenter=d2
sample=Bassoon_fall_MF_D2.opus
</region>

<region>
hikey=d3
hivel=127
lokey=c#3
lovel=1
lpc=k/6fQsOAP8MjBRFDo9dNwuhUH0LND5bBVmWpv2PPMcDuWSBBvvVJwU/M1D4vgAY+dXCwQOCMXMDEap1Ail7WwEBvEEEfJK7Ahzh1vxjT2j7cwR9ATmvlwMIDD0GAClXA
lpc_rms=-18.55
offset=52674
pitch_keycenter=d3
sample=Bassoon_fall_MF_D3.opus
</region>

<region>
hikey=d4
hivel=127
lokey=c#4
lovel=1
lpc=99aDQvQUI8MdKP9CWlQpwqZ4G0Ksmg3Cx/o7QV1er779uabAz7+GQJpd98Dv2HFA5Sf0QIm6K8Dl74nAVBRtv7nFhkBGRM0/OV7/v0jMJ8BMNrK+/eI8QFE1bD9T1tq/
lpc_rms=-20.42
offset=48588
pitch_keycenter=d4
sample=Bassoon_fall_MF_D4.opus
</region>

<region>
hikey=e2
hivel=127
lokey=d#2
lovel=1
lpc=iVXVQtAegcM7aUZD0wenwvFpnEL+2CnCPr4RQVpJt8BBM4bAQRc/wE0+k0AkkavALOmWQD+mQECFyyjAcxIpP2tBNEEqPFXB0sInviBCc0Dd73C/6tMpwLWcLUBCOpu+
lpc_rms=-20.16
offset=53161
pitch_keycenter=e2
sample=Bassoon_fall_MF_E2.opus
</region>

<region>
hikey=e3
hivel=127
lokey=d#3
lovel=1
lpc=jV8JQ+KBs8MRdqZDV9Mpw5yA8kLoH8TCw2aBQrKCKsLvI8hBugWOwZIKusAlxCBBgsqHQe5BJcFW0fzA3jGLQMC3iT94s6q9AjUIwTS41UBoRPlArQSIwVTKlkFpaAvB
lpc_rms=-18.52
offset=52300
pitch_keycenter=e3
sample=Bassoon_fall_MF_E3.opus
</region>

<region>
hikey=e4
hivel=127
lokey=d#4
lovel=1
lpc=84+VQlNAPMOZYyVDzk2fwlioakJOSD3C4T7qQVz0McFNz4LAx6WyQPGoI8Gkm0JB6+EiwOLxz7981Tg/QIgowfrjkEHavSDBoPRzQXJ6uMEvBgNBodWTvmuNmkC91izA
lpc_rms=-19.61
offset=46975
pitch_keycenter=e4
sample=Bassoon_fall_MF_E4.opus
</region>

<region>
hikey=f#2
hivel=127
lokey=f2
lovel=1
lpc=Js6qQuCHQMMOhf9CBvljwm39kkKLhfrBjyyPQMOjTMG8+txAffYgwAKKD8FNr51AeQyGwIbXEkGL60jA4fvfQNiV7MC3Ds9AL3m5wC3mWECYGdPAzdC6P+NPjEAQptC/
lpc_rms=-20.65
offset=50435
pitch_keycenter=f#2
sample=Bassoon_fall_MF_F#2.opus
</region>

<region>
hikey=f#3
hivel=127
lokey=f3
lovel=1
lpc=G1sZQzeIzMNADL9DZbs9w5YZB0MJ2dnChO6FQgZqEMID/0xBycB4wcIlGEGtsuHAE0lwQf9qrUCHaLDBd3cXQJ23tECvayxBycB7wLHKBsDPSAzALOeqwB7UYD9HLpFA
lpc_rms=-15.16
offset=52240
pitch_keycenter=f#3
sample=Bassoon_fall_MF_F#3.opus
</region>

<region>
hikey=f#4
hivel=127
lokey=f4
lovel=1
lpc=YAHCQgacg8NLim1Dpjq6wnk5hEI8Z4XC1iLrQY3UPsB4L+jA8WmCQEJgKsGc+7tB5JOAwdjZkr4bOMVAqGzFwIjzTEDW4he/wXwpQMFrzkADQILBf28YQc6EE8AX5U4/
lpc_rms=-16.07
offset=52452
pitch_keycenter=f#4
sample=Bassoon_fall_MF_F#4.opus
</region>

<region>
hikey=g#2
hivel=127
lokey=g2
lovel=1
lpc=8DsjQ8Tl0MPN1bxDC3xiwxfrQ0OkkdbCMqYNQr4vu8GiHUFBfIajwXLN4T8UU09AVxnHPqCxrEGiGTPB1iHnwM8gHUFquZ3AIWfuv+m+QsCgW9RAi0NDwR/hiEGzQ/DA
lpc_rms=-18.01
offset=54492
pitch_keycenter=g#2
sample=Bassoon_fall_MF_G#2.opus
</region>

<region>
hikey=g#3
hivel=127
lokey=g3
lovel=1
lpc=G42QQtv5L8M14QlD89djwqoHWkIVgB3CUtGYQQJrF8HTPL3AHdB0wCB4BkGtwGi/oHg1QD2GG0DkLr/AkX2OQFncy8BX9n5AvlpvP3rHiT8OcMG/ByiDwBkkgkDwBgm/
lpc_rms=-19.81
offset=38283
pitch_keycenter=g#3
sample=Bassoon_fall_MF_G#3.opus
</region>

<region>
hikey=D5
hivel=127
lokey=g4
lovel=1
lpc=/nsoQsRhzsLA06dCpiMbwr+RHkLV4ObBOYaiQJbRaUAPrafAiHmJv/a2UUD1EJ3AnkbzQM6dW0DovpXAJ5UiwI+sjL8xwXs/0PJEQDVTJMCDu46/XqWoP8yXSkBGkR7A
lpc_rms=-22.91
offset=54518
pitch_keycenter=G#4
sample=Bassoon_fall_MF_G#4.opus
</region>
</group>

<group>
ampeg_attack=0.02
ampeg_release=5.0
group_label=Release_91-127
lpc_hicc1=127
lpc_locc1=85
trigger=release

<region>
hikey=a#2
hivel=127
lokey=a2
lovel=1
lpc=ekhZQsrRB8MJq/xCQ+edwrnngEIwCC3CPL/AQQLwTcGFkrlAb0bXwH5D4T9uusC/hCaYQCUElD9pjZPA9gGZQMgm3MBvd+I/Tk8UQcDhIcFaQmBAkor2vzvBW0CYzMC/
lpc_rms=-18.52
offset=49634
pitch_keycenter=a#2
sample=Bassoon_fall_FF_A#2.opus
</region>

<region>
hikey=a#3
hivel=127
lokey=a3
lovel=1
lpc=YHm4QnfzacMbk1JDMyTawiVSqkIzhJHCsKwzQvblXcHwSf+/LwZ3wKDsckCSrFDAKVokP4qjF0GT63nBZ3wkQYp6gUAo1qnAlq6CwIpigEH0tonBNhNewF/eREErpkvA
lpc_rms=-15.33
offset=46543
pitch_keycenter=a#3
sample=Bassoon_fall_FF_A#3.opus
</region>

<region>
hivel=127
key=c2
lovel=1
lpc=wrBwQmp6HcPmBBFDspGawgBUeEKp4yzCqfLLQX4Z18HBSWRBkdgQwCc3dcDtlLpANf8mvm8ZOUAxhuzAQt3SQKVHxcCwUTpA0Kt4wLil20Ab7ETAAfVrP9N3IL86+bC9
lpc_rms=-20.92
offset=25104
sample=Bassoon_fall_FF_C2.opus
</region>

<region>
hikey=c3
hivel=127
lokey=b2
lovel=1
lpc=tPEvQr+JysLRp6JChec/wr2/LkIOzNLBM6CoQUq0nsHTvS5Bk8oewX5plD9IiYhAQTu6vyLWV0AqU+6+6onCvwUvfj9XOS3A/duSQGKvCMGfjwtBVK0IwcCYF0E1OXbA
lpc_rms=-17.51
offset=35784
pitch_keycenter=c3
sample=Bassoon_fall_FF_C3.opus
</region>

<region>
hikey=c4
hivel=127
lokey=b3
lovel=1
lpc=13qlQrg/PMOK6ABDl8btwbeK2UHLksHBSmwBQVdfgsCXXt5ADLYRwaLgvz4IUBLBKa1RQUMWQkDpmxfAX+hVQHrZ+MDCsPJAEfYNwahWt77Nlr0/N783v5aoUkHz+xHB
lpc_rms=-13.22
offset=36142
pitch_keycenter=c4
sample=Bassoon_fall_FF_C4.opus
</region>

<region>
hikey=d2
hivel=127
lokey=c#2
lovel=1
lpc=x10DQmj/j8LfkmxCFWIowmew/UEcgRDBPtSrQDeYEcHe8/NACW/SwLQvg0CqRVPAMTJWQEMBNsBLr9M/hGvCv4kruT/YfG+8p+Hxv472KEBBYDC8zlnrvxeyAEALMoG/
lpc_rms=-19.58
offset=38667
pitch_keycenter=d2
sample=Bassoon_fall_FF_D2.opus
</region>

<region>
hikey=d3
hivel=127
lokey=c#3
lovel=1
lpc=AQhSQsko+cLkitNC3oFWwolMAEJSKYzBOz82QWq+osCZrqdA+7mywN8CBT3QPJW/CggLQA0NusBcvolAWSUGQJCPCMBe4hdAwneGP01l2z1usJzAZMvnvwUQyUDa4tu/
lpc_rms=-17.04
offset=28270
pitch_keycenter=d3
sample=Bassoon_fall_FF_D3.opus
</region>

<region>
hikey=d4
hivel=127
lokey=c#4
lovel=1
lpc=mNThQTVZjMK+34ZCtRQiwqhU10EbM6rBBhJqQe+CcMDWoSm+snWFPtUJLMCcJQdAtDwTv4yAQsCDwWlAD3vWvxq+4T+hZqQ/7vqWvyYPL0AVczLBcDpCQXvjncDrIy0/
lpc_rms=-21.01
offset=41830
pitch_keycenter=d4
sample=Bassoon_fall_FF_D4.opus
</region>

<region>
hikey=e2
hivel=127
lokey=d#2
lovel=1
lpc=JQw4QmO0zsIo769Cq+mCwjf5U0JG/rHBS4RkQYoWR8FTrOJAdsLSwIc/hD9hVYY/KpJSvx7p7z7KxTu/HFi3P1qni7/x6x9AozSIv3HBvb1Y42E/X3JTwFI6V0AP2J2/
lpc_rms=-18.18
offset=29583
pitch_keycenter=e2
sample=Bassoon_fall_FF_E2.opus
</region>

<region>
hikey=e3
hivel=127
lokey=d#3
lovel=1
lpc=oldZQtUC8sKzUa5CKpngwYCdfUE863fB1PCDQdhJ8MByL8NAdF4ywflrhT+MFY4/3ryPQKgu0b8ys5a/neGOv9kdOr6kBLxA7Eznv2kPTsCUcABADjBhvyyA+76jtJM/
lpc_rms=-14.88
offset=30535
pitch_keycenter=e3
sample=Bassoon_fall_FF_E3.opus
</region>

<region>
hikey=e4
hivel=127
lokey=d#4
lovel=1
lpc=u2wdQoTXtcIG0J9CfrpBwgdgFkJLwArCaxMMQkQfz8HSFp1BdNVUwQCkHMAwZQBBA76pv4pPQcCqoRI/1FUTv1nFwL+feBZBrU4Rv85cOsFlxNJAY0Xlv3WEiUCkvzPA
lpc_rms=-14.17
offset=48807
pitch_keycenter=e4
sample=Bassoon_fall_FF_E4.opus
</region>

<region>
hikey=f#2
hivel=127
lokey=f2
lovel=1
lpc=tQxxQl9FF8OfvRBDQ83QwoY1uEJXplTCD5qeQbjSR8H3jRFB0j8wwAG1jMALOdJAd4sOwSt3q0A0aZ0/vP91Phpd4L6Wv4/AnIzoQIkZxMBhR9tAnPubwAC1gb/6d+c/
lpc_rms=-16.88
offset=46999
pitch_keycenter=f#2
sample=Bassoon_fall_FF_F#2.opus
</region>

<region>
hikey=f#3
hivel=127
lokey=f3
lovel=1
lpc=3zmVQk4IPcPSpzBDnF3fwtmbvkLtBYjCh1I6QtK0CsJTTJhBwBiMwHVKZcEmXcc/37U3QR/J9kD7EInBFe17QY1hNsHytPtAa3lewCXn6sB07wNBCT6lwLMiykANSy7A
lpc_rms=-12.37
offset=38385
pitch_keycenter=f#3
sample=Bassoon_fall_FF_F#3.opus
</region>

<region>
hikey=f#4
hivel=127
lokey=f4
lovel=1
lpc=DyJmQpEuFcPhuwNDJuZ3wuL7aUJCJ33CcCodQsyeN8HESZJArTnSwGRbgMBUCkVAeWMGQV1hLcHIDV4/fIp9QEqcGkCmfZO+L6vkQBMOc8GqhBNA3MLYP5n0jkACFBXA
lpc_rms=-17.10
offset=51385
pitch_keycenter=f#4
sample=Bassoon_fall_FF_F#4.opus
</region>

<region>
hikey=g#2
hivel=127
lokey=g2
lovel=1
lpc=At+HQkw7LsM81C1DYRb0wlSXvkJ3XmTC6hwUQlHr28Hj3WZBW0OZwRcAeUGnjiDBeChFQcPH978UrxTAcC/1vxUa1b808oW/fv4eQTnWPMFSGE1BHXyWwbnFokGklwjB
lpc_rms=-17.48
offset=36772
pitch_keycenter=g#2
sample=Bassoon_fall_FF_G#2.opus
</region>

<region>
hikey=g#3
hivel=127
lokey=g3
lovel=1
lpc=IeczQhgGz8K0bZFChP/Cwbz860FNQMHBUHAEQXulmL5qIKTAcIvAQCYJ7MDoA+g//+G1P/PwTD+Rw3Y/ud0fP3YE8b8fjTtA5uq3v0/CiMCia7g/G9MnP/7oo0BkuXnA
lpc_rms=-15.50
offset=37277
pitch_keycenter=g#3
sample=Bassoon_fall_FF_G#3.opus
</region>

<region>
hikey=D5
hivel=127
lokey=g4
lovel=1
lpc=algUQstvv8IU26hCoFYPwrH6/0HX5QrCSSVDQTODCUAl68Q/9jX4v7Q7gL8ko6nAzfG7QEZ2yUCegBrBbysgv+6PF0GzD1rAMs7jvzUwA8GdI/ZAZFUGP8XBJ0AZ6kLA
lpc_rms=-18.88
offset=56103
pitch_keycenter=g#4
sample=Bassoon_fall_FF_G#4.opus
</region>
</group>